<svg xmlns="http://www.w3.org/2000/svg" viewBox="0 0 1600 900" preserveAspectRatio="xMidYMid slice">
  <defs>
    <linearGradient id="mn-bg-light" x1="0" y1="0" x2="0" y2="1">
      <stop offset="0" stop-color="#FAFAFC"/>
      <stop offset="1" stop-color="#F4F4F6"/>
    </linearGradient>
    <linearGradient id="mn-blueGlow-light" x1="0" y1="0" x2="1" y2="1">
      <stop offset="0" stop-color="#1E96EB" stop-opacity="0.4"/>
      <stop offset="1" stop-color="#EC4899" stop-opacity="0.2"/>
    </linearGradient>
    <radialGradient id="mn-node1-light" cx="0.5" cy="0.5" r="0.5">
      <stop offset="0" stop-color="#7C3AED" stop-opacity="0.5"/>
      <stop offset="1" stop-color="#7C3AED" stop-opacity="0"/>
    </radialGradient>
    <radialGradient id="mn-node2-light" cx="0.5" cy="0.5" r="0.5">
      <stop offset="0" stop-color="#1E96EB" stop-opacity="0.5"/>
      <stop offset="1" stop-color="#1E96EB" stop-opacity="0"/>
    </radialGradient>
    <radialGradient id="mn-node3-light" cx="0.5" cy="0.5" r="0.5">
      <stop offset="0" stop-color="#EC4899" stop-opacity="0.5"/>
      <stop offset="1" stop-color="#EC4899" stop-opacity="0"/>
    </radialGradient>
    <radialGradient id="mn-node4-light" cx="0.5" cy="0.5" r="0.5">
      <stop offset="0" stop-color="#84CC16" stop-opacity="0.5"/>
      <stop offset="1" stop-color="#84CC16" stop-opacity="0"/>
    </radialGradient>
    <radialGradient id="mn-node5-light" cx="0.5" cy="0.5" r="0.5">
      <stop offset="0" stop-color="#7C3AED" stop-opacity="0.5"/>
      <stop offset="1" stop-color="#7C3AED" stop-opacity="0"/>
    </radialGradient>
    <radialGradient id="mn-node6-light" cx="0.5" cy="0.5" r="0.5">
      <stop offset="0" stop-color="#EC4899" stop-opacity="0.5"/>
      <stop offset="1" stop-color="#EC4899" stop-opacity="0"/>
    </radialGradient>
    <radialGradient id="mn-node7-light" cx="0.5" cy="0.5" r="0.5">
      <stop offset="0" stop-color="#1E96EB" stop-opacity="0.5"/>
      <stop offset="1" stop-color="#1E96EB" stop-opacity="0"/>
    </radialGradient>
  </defs>
  <rect width="1600" height="900" fill="url(#mn-bg-light)"/>
  <g fill="#C8C7CC">
    <circle cx="47" cy="83" r="0.8" opacity="0.5"/>
    <circle cx="112" cy="156" r="1.2" opacity="0.4"/>
    <circle cx="189" cy="42" r="0.6" opacity="0.55"/>
    <circle cx="237" cy="201" r="1.5" opacity="0.6"/>
    <circle cx="284" cy="119" r="0.9" opacity="0.45"/>
    <circle cx="351" cy="68" r="1.3" opacity="0.5"/>
    <circle cx="408" cy="173" r="0.7" opacity="0.35"/>
    <circle cx="467" cy="241" r="1.1" opacity="0.55"/>
    <circle cx="529" cy="92" r="0.5" opacity="0.45"/>
    <circle cx="591" cy="218" r="1.6" opacity="0.65"/>
    <circle cx="643" cy="58" r="0.8" opacity="0.5"/>
    <circle cx="712" cy="161" r="1" opacity="0.4"/>
    <circle cx="769" cy="29" r="1.4" opacity="0.6"/>
    <circle cx="821" cy="227" r="0.7" opacity="0.45"/>
    <circle cx="887" cy="109" r="1.2" opacity="0.55"/>
    <circle cx="943" cy="183" r="0.6" opacity="0.4"/>
    <circle cx="1009" cy="51" r="1.5" opacity="0.65"/>
    <circle cx="1071" cy="138" r="0.9" opacity="0.5"/>
    <circle cx="1129" cy="76" r="1.1" opacity="0.55"/>
    <circle cx="1187" cy="212" r="0.8" opacity="0.45"/>
    <circle cx="1248" cy="34" r="1.3" opacity="0.6"/>
    <circle cx="1306" cy="167" r="0.7" opacity="0.4"/>
    <circle cx="1368" cy="98" r="1" opacity="0.5"/>
    <circle cx="1427" cy="221" r="1.4" opacity="0.55"/>
    <circle cx="1489" cy="62" r="0.6" opacity="0.45"/>
    <circle cx="1549" cy="143" r="1.2" opacity="0.5"/>
    <circle cx="73" cy="297" r="1.1" opacity="0.55"/>
    <circle cx="138" cy="412" r="0.8" opacity="0.4"/>
    <circle cx="201" cy="358" r="1.5" opacity="0.65"/>
    <circle cx="263" cy="481" r="0.9" opacity="0.5"/>
    <circle cx="324" cy="287" r="1.3" opacity="0.6"/>
    <circle cx="389" cy="436" r="0.7" opacity="0.45"/>
    <circle cx="451" cy="371" r="1.6" opacity="0.7"/>
    <circle cx="514" cy="498" r="1" opacity="0.5"/>
    <circle cx="578" cy="312" r="0.5" opacity="0.4"/>
    <circle cx="639" cy="447" r="1.4" opacity="0.6"/>
    <circle cx="703" cy="383" r="0.8" opacity="0.5"/>
    <circle cx="764" cy="271" r="1.2" opacity="0.55"/>
    <circle cx="829" cy="461" r="0.6" opacity="0.4"/>
    <circle cx="891" cy="329" r="1.5" opacity="0.65"/>
    <circle cx="954" cy="403" r="0.9" opacity="0.5"/>
    <circle cx="1019" cy="289" r="1.1" opacity="0.55"/>
    <circle cx="1081" cy="421" r="0.7" opacity="0.45"/>
    <circle cx="1147" cy="358" r="1.3" opacity="0.6"/>
    <circle cx="1209" cy="479" r="0.8" opacity="0.5"/>
    <circle cx="1273" cy="307" r="1" opacity="0.5"/>
    <circle cx="1338" cy="439" r="1.4" opacity="0.55"/>
    <circle cx="1401" cy="376" r="0.6" opacity="0.4"/>
    <circle cx="1463" cy="491" r="1.2" opacity="0.55"/>
    <circle cx="1527" cy="318" r="0.9" opacity="0.45"/>
    <circle cx="61" cy="591" r="1.1" opacity="0.55"/>
    <circle cx="127" cy="673" r="0.7" opacity="0.4"/>
    <circle cx="193" cy="538" r="1.5" opacity="0.65"/>
    <circle cx="259" cy="729" r="0.9" opacity="0.5"/>
    <circle cx="321" cy="612" r="1.2" opacity="0.55"/>
    <circle cx="387" cy="697" r="0.6" opacity="0.4"/>
    <circle cx="449" cy="551" r="1.6" opacity="0.7"/>
    <circle cx="513" cy="746" r="0.8" opacity="0.5"/>
    <circle cx="579" cy="629" r="0.5" opacity="0.4"/>
    <circle cx="641" cy="707" r="1.3" opacity="0.6"/>
    <circle cx="705" cy="568" r="0.9" opacity="0.5"/>
    <circle cx="767" cy="781" r="1.1" opacity="0.55"/>
    <circle cx="831" cy="654" r="0.7" opacity="0.45"/>
    <circle cx="895" cy="529" r="1.4" opacity="0.6"/>
    <circle cx="959" cy="718" r="0.8" opacity="0.5"/>
    <circle cx="1023" cy="603" r="1.5" opacity="0.65"/>
    <circle cx="1087" cy="687" r="0.6" opacity="0.4"/>
    <circle cx="1149" cy="557" r="1.2" opacity="0.55"/>
    <circle cx="1213" cy="763" r="0.9" opacity="0.5"/>
    <circle cx="1277" cy="638" r="1" opacity="0.5"/>
    <circle cx="1341" cy="572" r="1.3" opacity="0.6"/>
    <circle cx="1403" cy="729" r="0.7" opacity="0.45"/>
    <circle cx="1467" cy="611" r="1.5" opacity="0.65"/>
    <circle cx="1531" cy="694" r="0.8" opacity="0.5"/>
    <circle cx="1571" cy="547" r="1.1" opacity="0.55"/>
    <circle cx="91" cy="811" r="0.9" opacity="0.5"/>
    <circle cx="247" cy="841" r="1.2" opacity="0.55"/>
    <circle cx="503" cy="857" r="0.7" opacity="0.45"/>
    <circle cx="789" cy="827" r="1.4" opacity="0.6"/>
    <circle cx="1117" cy="849" r="0.8" opacity="0.5"/>
    <circle cx="1419" cy="836" r="1.3" opacity="0.55"/>
  </g>
  <g>
    <circle cx="220" cy="280" r="14" fill="url(#mn-node1-light)"/>
    <circle cx="220" cy="280" r="3" fill="#7C3AED" fill-opacity="0.5"/>
    <circle cx="540" cy="180" r="10" fill="url(#mn-node2-light)"/>
    <circle cx="540" cy="180" r="2.5" fill="#1E96EB" fill-opacity="0.5"/>
    <circle cx="860" cy="380" r="12" fill="url(#mn-node3-light)"/>
    <circle cx="860" cy="380" r="3" fill="#EC4899" fill-opacity="0.5"/>
    <circle cx="1180" cy="220" r="8" fill="url(#mn-node4-light)"/>
    <circle cx="1180" cy="220" r="2" fill="#84CC16" fill-opacity="0.5"/>
    <circle cx="1380" cy="520" r="13" fill="url(#mn-node5-light)"/>
    <circle cx="1380" cy="520" r="3" fill="#7C3AED" fill-opacity="0.5"/>
    <circle cx="380" cy="640" r="11" fill="url(#mn-node6-light)"/>
    <circle cx="380" cy="640" r="2.5" fill="#EC4899" fill-opacity="0.5"/>
    <circle cx="980" cy="700" r="9" fill="url(#mn-node7-light)"/>
    <circle cx="980" cy="700" r="2.5" fill="#1E96EB" fill-opacity="0.5"/>
  </g>
  <g fill="none" stroke="url(#mn-blueGlow-light)" stroke-width="1.2" stroke-linecap="round">
    <path d="M 220 280 C 320 120, 440 100, 540 180"/>
    <path d="M 540 180 C 680 240, 740 320, 860 380"/>
    <path d="M 860 380 C 980 280, 1080 200, 1180 220"/>
    <path d="M 1180 220 C 1340 280, 1420 400, 1380 520"/>
    <path d="M 1380 520 C 1240 620, 1100 680, 980 700"/>
    <path d="M 980 700 C 780 760, 540 720, 380 640"/>
    <path d="M 380 640 C 280 500, 220 420, 220 280"/>
  </g>
</svg>
